<svg width="245" height="88" viewBox="0 0 245 88" fill="none" xmlns="http://www.w3.org/2000/svg">
<path d="M29 50.2268H15.08L12.12 57.9868H11.2L21.64 30.6668H22.44L32.84 57.9868H31.92L29 50.2268ZM28.72 49.5068L22.04 31.9468L15.36 49.5068H28.72ZM38.2234 41.6268C39.0768 37.8135 41.9168 35.9068 46.7434 35.9068V36.7868H46.3834C44.1168 36.7868 42.1834 37.4535 40.5834 38.7868C39.0101 40.0935 38.2234 42.2135 38.2234 45.1468V57.9868H37.4234V36.3868H38.2234V41.6268ZM52.6591 37.1868V52.3068C52.6591 53.6135 52.8057 54.6135 53.0991 55.3068C53.3924 56.0001 53.8591 56.4935 54.4991 56.7868C55.1391 57.0535 56.0324 57.1868 57.1791 57.1868H59.4591V57.9868H57.0991C55.2324 57.9868 53.8857 57.5601 53.0591 56.7068C52.2591 55.8535 51.8591 54.3868 51.8591 52.3068V37.1868H48.3391V36.3868H51.8591V30.8668H52.6591V36.3868H59.4591V37.1868H52.6591ZM64.8547 30.8668C64.5614 30.8668 64.308 30.7735 64.0947 30.5868C63.908 30.3735 63.8147 30.1068 63.8147 29.7868C63.8147 29.4668 63.908 29.2135 64.0947 29.0268C64.308 28.8135 64.5614 28.7068 64.8547 28.7068C65.148 28.7068 65.388 28.8135 65.5747 29.0268C65.788 29.2135 65.8947 29.4668 65.8947 29.7868C65.8947 30.1068 65.788 30.3735 65.5747 30.5868C65.388 30.7735 65.148 30.8668 64.8547 30.8668ZM65.2547 36.3868V57.9868H64.4547V36.3868H65.2547ZM79.0319 58.2668C76.6585 58.2668 74.7385 57.7868 73.2719 56.8268C71.8319 55.8668 70.9919 54.4135 70.7519 52.4668H71.5519C71.7119 54.0668 72.4185 55.3201 73.6719 56.2268C74.9519 57.1068 76.7519 57.5468 79.0719 57.5468C80.2452 57.5468 81.2719 57.3201 82.1519 56.8668C83.0585 56.4135 83.7519 55.8135 84.2319 55.0668C84.7119 54.2935 84.9519 53.4668 84.9519 52.5868C84.9519 51.6268 84.6719 50.8535 84.1119 50.2668C83.5785 49.6535 82.8985 49.1868 82.0719 48.8668C81.2719 48.5468 80.1652 48.2001 78.7519 47.8268C77.1785 47.4268 75.8985 47.0268 74.9119 46.6268C73.9519 46.2268 73.1252 45.6135 72.4319 44.7868C71.7652 43.9601 71.4319 42.8668 71.4319 41.5068C71.4319 40.5468 71.7252 39.6535 72.3119 38.8268C72.8985 38.0001 73.6985 37.3468 74.7119 36.8668C75.7519 36.3601 76.9119 36.1068 78.1919 36.1068C80.3785 36.1068 82.1385 36.6535 83.4719 37.7468C84.8052 38.8401 85.5252 40.3601 85.6319 42.3068H84.8319C84.7519 40.7068 84.1385 39.4001 82.9919 38.3868C81.8719 37.3468 80.2719 36.8268 78.1919 36.8268C77.0719 36.8268 76.0585 37.0401 75.1519 37.4668C74.2452 37.8935 73.5252 38.4668 72.9919 39.1868C72.4852 39.9068 72.2319 40.6801 72.2319 41.5068C72.2319 42.6801 72.5385 43.6268 73.1519 44.3468C73.7652 45.0668 74.5119 45.6001 75.3919 45.9468C76.2985 46.2935 77.4985 46.6668 78.9919 47.0668C80.5119 47.4935 81.6985 47.8801 82.5519 48.2268C83.4319 48.5735 84.1785 49.1068 84.7919 49.8268C85.4052 50.5201 85.7119 51.4401 85.7119 52.5868C85.7119 53.6535 85.4185 54.6268 84.8319 55.5068C84.2452 56.3601 83.4452 57.0401 82.4319 57.5468C81.4185 58.0268 80.2852 58.2668 79.0319 58.2668ZM93.1278 37.1868V52.3068C93.1278 53.6135 93.2745 54.6135 93.5678 55.3068C93.8611 56.0001 94.3278 56.4935 94.9678 56.7868C95.6078 57.0535 96.5011 57.1868 97.6478 57.1868H99.9278V57.9868H97.5678C95.7011 57.9868 94.3545 57.5601 93.5278 56.7068C92.7278 55.8535 92.3278 54.3868 92.3278 52.3068V37.1868H88.8078V36.3868H92.3278V30.8668H93.1278V36.3868H99.9278V37.1868H93.1278ZM111.883 58.2668C109.51 58.2668 107.59 57.7868 106.123 56.8268C104.683 55.8668 103.843 54.4135 103.603 52.4668H104.403C104.563 54.0668 105.27 55.3201 106.523 56.2268C107.803 57.1068 109.603 57.5468 111.923 57.5468C113.097 57.5468 114.123 57.3201 115.003 56.8668C115.91 56.4135 116.603 55.8135 117.083 55.0668C117.563 54.2935 117.803 53.4668 117.803 52.5868C117.803 51.6268 117.523 50.8535 116.963 50.2668C116.43 49.6535 115.75 49.1868 114.923 48.8668C114.123 48.5468 113.017 48.2001 111.603 47.8268C110.03 47.4268 108.75 47.0268 107.763 46.6268C106.803 46.2268 105.977 45.6135 105.283 44.7868C104.617 43.9601 104.283 42.8668 104.283 41.5068C104.283 40.5468 104.577 39.6535 105.163 38.8268C105.75 38.0001 106.55 37.3468 107.563 36.8668C108.603 36.3601 109.763 36.1068 111.043 36.1068C113.23 36.1068 114.99 36.6535 116.323 37.7468C117.657 38.8401 118.377 40.3601 118.483 42.3068H117.683C117.603 40.7068 116.99 39.4001 115.843 38.3868C114.723 37.3468 113.123 36.8268 111.043 36.8268C109.923 36.8268 108.91 37.0401 108.003 37.4668C107.097 37.8935 106.377 38.4668 105.843 39.1868C105.337 39.9068 105.083 40.6801 105.083 41.5068C105.083 42.6801 105.39 43.6268 106.003 44.3468C106.617 45.0668 107.363 45.6001 108.243 45.9468C109.15 46.2935 110.35 46.6668 111.843 47.0668C113.363 47.4935 114.55 47.8801 115.403 48.2268C116.283 48.5735 117.03 49.1068 117.643 49.8268C118.257 50.5201 118.563 51.4401 118.563 52.5868C118.563 53.6535 118.27 54.6268 117.683 55.5068C117.097 56.3601 116.297 57.0401 115.283 57.5468C114.27 58.0268 113.137 58.2668 111.883 58.2668Z" fill="white"/>
</svg>
