<svg width="116" height="54" viewBox="0 0 116 54" fill="none" xmlns="http://www.w3.org/2000/svg">
<path d="M64.044 20.56V40H63.324V34.708C62.892 36.556 61.98 37.96 60.588 38.92C59.22 39.88 57.588 40.36 55.692 40.36C53.412 40.36 51.54 39.652 50.076 38.236C48.612 36.82 47.88 34.684 47.88 31.828V20.56H48.564V31.9C48.564 34.444 49.2 36.388 50.472 37.732C51.744 39.052 53.484 39.712 55.692 39.712C57.996 39.712 59.844 38.968 61.236 37.48C62.628 35.968 63.324 33.748 63.324 30.82V20.56H64.044ZM70.8573 26.5C71.4573 24.676 72.5133 23.188 74.0253 22.036C75.5373 20.884 77.4093 20.308 79.6413 20.308C81.4893 20.308 83.1333 20.716 84.5733 21.532C86.0133 22.324 87.1293 23.476 87.9213 24.988C88.7133 26.476 89.1093 28.24 89.1093 30.28C89.1093 32.32 88.7133 34.096 87.9213 35.608C87.1293 37.096 86.0133 38.248 84.5733 39.064C83.1333 39.856 81.4893 40.252 79.6413 40.252C77.4093 40.252 75.5253 39.676 73.9893 38.524C72.4533 37.372 71.4093 35.884 70.8573 34.06V40H70.1733V13.36H70.8573V26.5ZM88.3893 30.28C88.3893 28.36 88.0293 26.704 87.3093 25.312C86.5893 23.896 85.5693 22.816 84.2493 22.072C82.9533 21.328 81.4173 20.956 79.6413 20.956C77.9613 20.956 76.4493 21.352 75.1053 22.144C73.7853 22.912 72.7413 24.004 71.9733 25.42C71.2293 26.812 70.8573 28.432 70.8573 30.28C70.8573 32.128 71.2293 33.76 71.9733 35.176C72.7413 36.568 73.7853 37.66 75.1053 38.452C76.4493 39.22 77.9613 39.604 79.6413 39.604C81.4173 39.604 82.9533 39.232 84.2493 38.488C85.5693 37.744 86.5893 36.676 87.3093 35.284C88.0293 33.868 88.3893 32.2 88.3893 30.28ZM93.4256 30.28C93.4256 28.24 93.8216 26.476 94.6136 24.988C95.4056 23.476 96.5216 22.324 97.9616 21.532C99.4016 20.716 101.046 20.308 102.894 20.308C105.126 20.308 107.01 20.896 108.546 22.072C110.106 23.224 111.15 24.7 111.678 26.5V20.56H112.362V40H111.678V34.06C111.15 35.86 110.106 37.348 108.546 38.524C107.01 39.676 105.126 40.252 102.894 40.252C101.046 40.252 99.4016 39.856 97.9616 39.064C96.5216 38.248 95.4056 37.096 94.6136 35.608C93.8216 34.096 93.4256 32.32 93.4256 30.28ZM111.678 30.28C111.678 28.432 111.294 26.812 110.526 25.42C109.782 24.004 108.738 22.912 107.394 22.144C106.074 21.352 104.574 20.956 102.894 20.956C101.118 20.956 99.5696 21.328 98.2496 22.072C96.9536 22.816 95.9456 23.896 95.2256 25.312C94.5056 26.704 94.1456 28.36 94.1456 30.28C94.1456 32.2 94.5056 33.868 95.2256 35.284C95.9456 36.676 96.9536 37.744 98.2496 38.488C99.5696 39.232 101.118 39.604 102.894 39.604C104.574 39.604 106.074 39.22 107.394 38.452C108.738 37.66 109.782 36.568 110.526 35.176C111.294 33.76 111.678 32.128 111.678 30.28Z" fill="white"/>
<path d="M12.5676 0H11.3942V34.0336C10.0697 32.9594 7.78919 32.8143 5.38401 33.8462C1.9483 35.3202 -0.432233 38.631 0.0658752 41.2411C0.563983 43.8512 3.7524 44.771 7.18723 43.2974C10.3686 41.9321 12.6441 38.9925 12.5676 36.4919V9.67688C16.4275 10.9965 20.8277 13.6356 24.0546 17.5943C27.4601 21.7725 24.5949 27.2712 24.5949 27.2712C25.1816 27.2712 26.6947 24.1922 26.6947 21.9929C26.6947 14.9552 15.7944 7.91745 12.5676 0Z" fill="url(#paint0_linear_109_76)"/>
<path d="M33.8687 44H34.908L34.908 9.96642C36.0811 11.0406 38.101 11.1857 40.2313 10.1538C43.2744 8.67983 45.3828 5.36902 44.9417 2.7589C44.5005 0.148785 41.6764 -0.770958 38.6342 0.702564C35.8164 2.06789 33.8009 5.00746 33.8687 7.50805L33.8687 34.3231C30.45 33.0035 26.5526 30.3644 23.6945 26.4057C20.6782 22.2275 23.2159 16.7288 23.2159 16.7288C22.6963 16.7288 21.3561 19.8078 21.3561 22.0071C21.3561 29.0448 31.0107 36.0826 33.8687 44Z" fill="url(#paint1_linear_109_76)"/>
<defs>
<linearGradient id="paint0_linear_109_76" x1="13.3474" y1="0" x2="13.3474" y2="43.9999" gradientUnits="userSpaceOnUse">
<stop stop-color="#3756B1"/>
<stop offset="1" stop-color="#B93A81"/>
</linearGradient>
<linearGradient id="paint1_linear_109_76" x1="33.1781" y1="44" x2="33.1781" y2="9.91821e-05" gradientUnits="userSpaceOnUse">
<stop stop-color="#3756B1"/>
<stop offset="1" stop-color="#B93A81"/>
</linearGradient>
</defs>
</svg>
